{"title":"The Magician 2005.DVDRip.H.263.DivX . NVEE","uid":8822513,"size":1023805285,"categoryP":"video","categoryS":"movies","magnet":"?xt=urn:btih:1604e9bc822c8c7129c226f1e4b0caafefc7e0fc&amp;dn=The+Magician+2005.DVDRip.H.263.DivX+.+NVEE&amp;tr=udp%3A%2F%2Ftracker.openbittorrent.com%3A80&amp;tr=udp%3A%2F%2Fopen.demonii.com%3A1337&amp;tr=udp%3A%2F%2Ftracker.coppersurfer.tk%3A6969&amp;tr=udp%3A%2F%2Fexodus.desync.com%3A6969","seeders":1,"leechers":1,"uploader":".NVEE","files":3,"time":1376737117,"description":"FULL_INFOs\n\n\n99.99% --- SYNCED GUARANTEED \n\nSource : DVD\n\nMy Media Player of Choice &quot;VLC Media Player&quot;\n\nSpoken Language : English Only\n\nAudio : 6 ~ Channels\n\n\nOnly @ http://kickass.to/user/.NVEE/uploads/\n\n\nSubs Info : No Subs available.\n\n &lt;a href=&quot;\nhttp://www.imdb.com/title/tt0461989/&quot; rel=&quot;nofollow&quot; target=&quot;_NEW&quot;&gt;\nhttp://www.imdb.com/title/tt0461989/&lt;/a&gt;\n\n\nGeneral\n\nComplete name : The Magician 2005.DVDRip.H.263.DivX . NVEE.divx\nFormat : AVI\nFormat/Info : Audio Video Interleave\nFile size : 976 MiB\nDuration : 1h 17mn\nOverall bit rate : 1 758 Kbps\n\nVideo\n\nID : 0\nFormat : MPEG-4 Visual\nFormat settings, BVOP : 1\nFormat settings, QPel : No\nFormat settings, GMC : No warppoints\nFormat settings, Matrix : Default (H.263)\nMuxing mode : Packed bitstream\nCodec ID : DX50\nCodec ID/Hint : DivX 5\nDuration : 1h 17mn\nBit rate : 1 300 Kbps\nWidth : 720 pixels\nHeight : 400 pixels\nDisplay aspect ratio : 16:9\nFrame rate : 25.000 fps\nColor space : YUV\nChroma subsampling : 4:2:0\nBit depth : 8 bits\nScan type : Progressive\nCompression mode : Lossy\nBits/(Pixel*Frame) : 0.181\nStream size : 722 MiB (74%)\nTitle : Video\nWriting library : DivX 6.8.5 (UTC 2009-08-20)\n\nAudio\n\nID : 1\nFormat : AC-3\nFormat/Info : Audio Coding 3\nMode extension : CM (complete main)\nFormat settings, Endianness : Big\nCodec ID : 2000\nDuration : 1h 17mn\nBit rate mode : Constant\nBit rate : 448 Kbps\nChannel(s) : 6 channels\nChannel positions : Front: L C R, Side: L R, LFE\nSampling rate : 48.0 KHz\nBit depth : 16 bits\nCompression mode : Lossy\nStream size : 249 MiB (25%)\nAlignment : Split accross interleaves\nInterleave, duration : 40 ms (1.00 video frame)\nInterleave, preload duration : 500 ms\nTitle : Audio\n\n\n &lt;a href=&quot;\nhttp://www.imdb.com/title/tt0461989/&quot; rel=&quot;nofollow&quot; target=&quot;_NEW&quot;&gt;\nhttp://www.imdb.com/title/tt0461989/&lt;/a&gt;\n\n\n\nSynopsis\n\nThe Magician is an Australian film released in 2005, written and directed by Scott Ryan. It is a mockumentary following the escapades of a Melbourne underworld hitman. The film was originally shot over 10 days with a budget of A$3,000. Ryan edited a half-hour version of the film for screening at the St. Kilda Film Festival, where it was seen by stuntman and film producer Nash Edgerton (brother of Joel Edgerton), who took the project under his wing. After receiving A$330,000 in government grants, the film was re-released in 2005 \n\nDirected by\tScott Ryan\nProduced by\tMichele Bennett\nCinematography\tMassimiliano Andrighetto\nEditing by\t Nash Edgerton\nDistributed by\tAustralia - Hopscotch Productions\nWorldwide - Trinity Filmed Entertainment\nRelease date(s)\t2005\nRunning time\t85 minutes\nCountry\tAustralia\nLanguage English \n\n\nSee_Me_Torrents'n_Seed _Me_Torrents.\nThis torrent file is 100% Australian !\n\nEnjoy!","torrent":{"xt":"urn:btih:1604e9bc822c8c7129c226f1e4b0caafefc7e0fc","amp;dn":"The+Magician+2005.DVDRip.H.263.DivX+.+NVEE","amp;tr":["udp%3A%2F%2Ftracker.openbittorrent.com%3A80","udp%3A%2F%2Fopen.demonii.com%3A1337","udp%3A%2F%2Ftracker.coppersurfer.tk%3A6969","udp%3A%2F%2Fexodus.desync.com%3A6969"],"infoHash":"1604e9bc822c8c7129c226f1e4b0caafefc7e0fc","infoHashBuffer":{"type":"Buffer","data":[22,4,233,188,130,44,140,113,41,194,38,241,228,176,202,175,239,199,224,252]},"announce":[],"urlList":[]}}